<svg width="73" height="74" viewBox="0 0 73 74" fill="none" xmlns="http://www.w3.org/2000/svg">
<path d="M24.7679 39.6426C24.0509 39.6426 23.4643 39.048 23.4643 38.3212V25.1069C23.4643 24.3801 22.8777 23.7855 22.1607 23.7855C21.4437 23.7855 20.8571 24.3801 20.8571 25.1069V39.7595C21.3554 41.5344 21.3344 43.6754 21.3134 45.0605V45.4437C22.0304 45.8401 23.2166 46.6066 24.4941 48.0469C24.9764 48.5887 24.9243 49.4212 24.3898 49.9101C23.8554 50.3991 23.0341 50.3462 22.5518 49.8044C21.2873 48.3773 20.1793 47.7959 19.697 47.558C19.5405 47.4787 19.4232 47.4126 19.3711 47.373C18.7062 46.9237 18.7062 46.3291 18.7193 45.0209V45.0109C18.7305 43.8304 18.75 41.7741 18.3372 40.3808C18.3182 40.3311 18.302 40.2798 18.2891 40.2275C18.2316 40.0547 18.1668 39.8938 18.0936 39.7484C16.5945 36.7884 14.9259 35.8501 13.7527 35.5991C15.1475 39.048 15.6689 42.5762 15.6689 44.968C15.6689 49.9234 18.3804 56.808 23.4773 56.8344C24.1943 56.8344 24.7809 57.4291 24.7809 58.1559C24.7809 58.9091 24.1943 59.4905 23.4773 59.4905C17.0507 59.4641 13.0618 51.9451 13.0618 44.9812C13.0618 42.4837 12.41 38.5591 10.598 35.0176C10.4285 34.6873 10.4025 34.2909 10.5328 33.9341C10.6632 33.5773 10.9369 33.2998 11.2889 33.1676C12.7258 32.6137 15.6314 32.6171 18.25 35.403V25.1069C18.25 22.9266 20.0098 21.1426 22.1607 21.1426C22.6172 21.1426 23.0561 21.223 23.4643 21.3705V19.8212C23.4643 17.6409 25.2241 15.8569 27.375 15.8569C29.5259 15.8569 31.2857 17.6409 31.2857 19.8212V20.049C31.6939 19.9016 32.1328 19.8212 32.5893 19.8212C33.3062 19.8212 34.0232 20.0194 34.6359 20.4026C35.2486 20.7859 35.4441 21.5919 35.0661 22.2262C34.688 22.8473 33.8929 23.0455 33.2671 22.6623C33.0586 22.5301 32.8239 22.4641 32.5893 22.4641C31.8723 22.4641 31.2857 23.0587 31.2857 23.7855V31.7537C31.2857 32.4805 30.6991 33.0751 29.9821 33.0751C29.2652 33.0751 28.6786 32.4805 28.6786 31.7537V19.8212C28.6786 19.0944 28.092 18.4998 27.375 18.4998C26.658 18.4998 26.0714 19.0944 26.0714 19.8212V38.3212C26.0714 39.048 25.4848 39.6426 24.7679 39.6426Z" fill="#79B8FF"/>
<path d="M24.077 67.2211C24.2986 67.3665 24.5593 67.4458 24.807 67.4458C25.2241 67.4458 25.6282 67.2344 25.8889 66.8511L30.9077 59.319C31.4943 59.1208 32.485 58.6979 33.4366 57.9447C33.9971 57.4954 34.1014 56.6761 33.6582 56.0947C33.215 55.5265 32.4068 55.4208 31.8332 55.8701C30.8686 56.6233 29.7605 56.9272 29.7605 56.9272C29.4477 57.0065 29.187 57.2047 29.0045 57.469L23.725 65.3844C23.3209 65.9922 23.4773 66.8115 24.077 67.2211Z" fill="#79B8FF"/>
<path d="M13.1139 64.7763C12.8272 64.7763 12.5404 64.6838 12.3058 64.4988C11.7452 64.0496 11.6409 63.2171 12.0842 62.6488L15.1736 58.6846C15.6168 58.1163 16.438 58.0106 16.9986 58.4599C17.5591 58.9092 17.6634 59.7417 17.2202 60.3099L14.1307 64.2742C13.883 64.6046 13.505 64.7763 13.1139 64.7763Z" fill="#79B8FF"/>
<path d="M35.2225 10.5714C35.2225 11.2981 35.8091 11.8928 36.5261 11.8928C37.243 11.8928 37.8296 11.2981 37.8296 10.5714V6.60707C37.8296 5.88029 37.243 5.28564 36.5261 5.28564C35.8091 5.28564 35.2225 5.88029 35.2225 6.60707V10.5714Z" fill="#2188FF"/>
<path d="M43.435 12.8837C43.6827 13.1348 44.0216 13.2669 44.3475 13.2669C44.6864 13.2669 45.0254 13.1348 45.273 12.8705L47.8671 10.2012C48.3755 9.68586 48.3625 8.85336 47.8541 8.33801C47.3457 7.82265 46.5245 7.82265 46.0161 8.35122L43.422 11.0205C42.9136 11.5359 42.9266 12.3684 43.435 12.8837Z" fill="#2188FF"/>
<path d="M28.6916 13.2409C28.3527 13.2409 28.0138 13.1088 27.7661 12.8445L25.172 10.1884C24.6636 9.67308 24.6766 8.82737 25.185 8.32522C25.6934 7.82308 26.5277 7.80987 27.023 8.33844L29.6171 10.9945C30.1255 11.5099 30.1125 12.3556 29.6041 12.8577C29.3564 13.122 29.0175 13.2409 28.6916 13.2409Z" fill="#2188FF"/>
<path d="M49.8484 66.9434C50.1091 67.2605 50.4741 67.4191 50.8522 67.4191C51.152 67.4191 51.4518 67.3134 51.6995 67.0887C52.247 66.613 52.3122 65.7805 51.8559 65.2255L45.299 57.2969C45.0383 56.9798 44.6602 56.808 44.2561 56.8212C39.9283 56.9534 36.6954 53.7423 35.5483 48.2319C34.3881 42.6159 33.5408 40.2373 32.4979 37.8191C33.5408 37.7662 35.0659 38.1759 36.4086 40.5809C36.4365 40.632 36.467 40.6804 36.5 40.726V45.0076C36.5 45.7344 37.0866 46.3291 37.8036 46.3291C38.5205 46.3291 39.1071 45.7344 39.1071 45.0076V25.1069C39.1071 24.3801 39.6937 23.7855 40.4107 23.7855C41.1277 23.7855 41.7143 24.3801 41.7143 25.1069V38.3344C41.7143 39.0612 42.3009 39.6559 43.0178 39.6559H43.0244H43.0309C43.7478 39.6559 44.3345 39.0612 44.3345 38.3476V22.4773C44.3345 22.414 44.33 22.3518 44.3214 22.2907V19.8212C44.3214 19.0944 44.908 18.4998 45.625 18.4998C46.342 18.4998 46.9286 19.0944 46.9286 19.8212V38.3212C46.9286 39.048 47.5152 39.6426 48.2321 39.6426C48.9491 39.6426 49.5357 39.048 49.5357 38.3212V22.4641C49.5357 21.7373 50.1223 21.1426 50.8393 21.1426C51.5562 21.1426 52.1428 21.7373 52.1428 22.4641V38.3212C52.1428 39.048 52.7295 39.6426 53.4464 39.6426C54.1634 39.6426 54.75 39.048 54.75 38.3212V30.3926C54.75 29.6659 55.3366 29.0712 56.0536 29.0712C56.7705 29.0712 57.3571 29.6659 57.3571 30.3926V47.003C57.3571 52.5926 54.2937 54.2973 54.1764 54.3501C53.8245 54.5351 53.5768 54.8655 53.4855 55.2487C53.3943 55.6319 53.4855 56.0416 53.7332 56.3587L58.9214 62.9659C59.1821 63.2962 59.5602 63.468 59.9382 63.468C60.225 63.468 60.5118 63.3623 60.7595 63.1773C61.32 62.7148 61.4112 61.8823 60.968 61.3141L56.6141 55.7773C57.9698 54.5351 59.9252 51.9187 59.9643 47.1351V30.3926C59.9643 28.2123 58.2045 26.4284 56.0536 26.4284C55.5971 26.4284 55.1581 26.5087 54.75 26.6562V22.4641C54.75 20.2837 52.9902 18.4998 50.8393 18.4998C50.331 18.4998 49.8445 18.5994 49.3981 18.7803C48.9441 17.1007 47.4209 15.8569 45.625 15.8569C43.4741 15.8569 41.7143 17.6409 41.7143 19.8212V21.3705C41.3061 21.223 40.8672 21.1426 40.4107 21.1426C38.2598 21.1426 36.5 22.9266 36.5 25.1069V36.5917C34.0853 34.6186 31.4217 35.0918 30.0863 35.8237C29.4866 36.1541 29.2911 37.013 29.5649 37.6473L29.5675 37.6532C30.8305 40.5174 31.6645 42.4088 32.9933 48.7869C34.3359 55.2884 38.4031 59.3187 43.6825 59.4773L49.8484 66.9434Z" fill="#2188FF"/>
<path d="M7.49554 20.6671C7.65197 21.2353 8.16036 21.6317 8.74697 21.6317C9.33357 21.6317 9.855 21.2353 10.0114 20.6539C10.1468 20.1507 10.2152 19.8963 10.3744 19.7326C10.5371 19.5653 10.7945 19.4926 11.315 19.3456C11.8755 19.1871 12.2666 18.6585 12.2666 18.0639C12.2666 17.4692 11.8755 16.9539 11.302 16.7953C10.7828 16.6553 10.5254 16.586 10.361 16.4213C10.1993 16.2592 10.1276 16.0048 9.98536 15.5003C9.82893 14.9321 9.32054 14.5356 8.73393 14.5356C8.14732 14.5356 7.62589 14.9321 7.46947 15.5003C7.33408 16.0035 7.26565 16.2579 7.1065 16.4216C6.94384 16.5889 6.68642 16.6616 6.16589 16.8085C5.60536 16.9671 5.21429 17.4956 5.21429 18.0903C5.21429 18.6849 5.60536 19.2135 6.17893 19.3589C7.20875 19.6496 7.20875 19.6496 7.49554 20.6671Z" fill="#2188FF"/>
<path d="M63.497 21.6317C62.9104 21.6317 62.402 21.2353 62.2455 20.6671C61.9587 19.6496 61.9588 19.6496 60.9289 19.3589C60.3554 19.2135 59.9643 18.6849 59.9643 18.0903C59.9643 17.4956 60.3554 16.9671 60.9159 16.8085C61.4364 16.6616 61.6939 16.5889 61.8565 16.4216C62.0157 16.2579 62.084 16.0035 62.2195 15.5003C62.3759 14.9321 62.8973 14.5356 63.4839 14.5356C64.0705 14.5885 64.5789 14.9321 64.7354 15.5003C65.0221 16.5178 65.0221 16.5178 66.052 16.8085C66.6255 16.9671 67.0166 17.4824 67.0166 18.0771C67.0166 18.6717 66.6255 19.2003 66.065 19.3589C65.0352 19.6496 65.0352 19.6496 64.7614 20.6671C64.605 21.2353 64.0836 21.6317 63.497 21.6317Z" fill="#2188FF"/>
<path d="M35.2875 67.7496C35.444 68.3178 35.9524 68.7142 36.539 68.7142C37.1386 68.701 37.647 68.3046 37.7904 67.7496C37.9258 67.2464 37.9943 66.992 38.1534 66.8283C38.3161 66.661 38.5735 66.5883 39.094 66.4414C39.6545 66.2828 40.0456 65.7542 40.0456 65.1596C40.0456 64.5649 39.6545 64.0496 39.0809 63.891C38.0511 63.6003 38.0511 63.6003 37.7643 62.5828C37.6079 62.0146 37.0995 61.6182 36.5129 61.6182C35.9263 61.6182 35.4179 62.0146 35.2615 62.5828C34.9877 63.6003 34.9877 63.6003 33.9579 63.891C33.3974 64.0496 33.0063 64.5782 33.0063 65.1728C33.0063 65.7674 33.3974 66.2828 33.9709 66.4414C34.4908 66.5882 34.7483 66.6609 34.9126 66.8276C35.0739 66.9914 35.1456 67.2457 35.2875 67.7496Z" fill="#2188FF"/>
</svg>
