<svg width="580" height="374" viewBox="0 0 580 374" fill="none" xmlns="http://www.w3.org/2000/svg">
<ellipse rx="79.904" ry="10.1918" transform="matrix(0.748108 -0.663577 0.62764 0.778504 71.1736 65.9568)" fill="#007BED"/>
<g filter="url(#filter0_d)">
<rect width="96.9827" height="94.3653" rx="47.1826" transform="matrix(0.444738 -0.895661 0.87758 0.47943 5 86.8639)" fill="#79B8FF"/>
</g>
<path d="M125.499 17.5C104.504 54.0232 51.5697 96.068 18 113.5" stroke="#007BED" stroke-width="7"/>
<path d="M143.705 103.408C144.232 120.2 139.944 126.098 126.275 132.025" stroke="#007BED" stroke-width="4"/>
<path d="M129.763 103.661C131.301 114.173 128.748 117.521 119.71 120.166" stroke="#A2CDFF" stroke-width="3"/>
<path d="M157.055 103.347C158.132 128.468 151.748 137.21 131.183 145.823" stroke="#00498C" stroke-width="5"/>
<path d="M419.876 109.754C400.812 109.023 394.476 102.871 388.86 84.353" stroke="#007BED" stroke-width="4"/>
<path d="M420.709 91.3579C408.678 92.4917 405.091 88.8426 402.82 76.708" stroke="#A2CDFF" stroke-width="3"/>
<path d="M418.874 127.353C390.33 126.639 380.941 117.483 372.836 89.6509" stroke="#00498C" stroke-width="5"/>
<rect x="414.565" y="16.5448" width="46.1047" height="51.1385" fill="#79B8FF"/>
<path d="M460.67 16.5448L482.366 0V51.1385L460.67 67.6833V16.5448Z" fill="#E0EFFF"/>
<path d="M442.364 0H482.366L460.67 16.5448H414.565L442.364 0Z" fill="#BEDDFF"/>
<path d="M478.298 31.5855L580 21.0571L561.694 45.8744L467.45 38.3539L478.298 31.5855Z" fill="#00498C"/>
<path d="M414.565 31.5857L347.442 16.5449L321 39.0728H414.565V31.5857Z" fill="#00498C"/>
<ellipse cx="265.377" cy="365.625" rx="33.5219" ry="7.422" fill="#79B8FF"/>
<path d="M235.865 290.241C254.505 264.217 284.68 269.575 297.773 294.143" stroke="#007BED" stroke-width="4"/>
<path d="M247.996 303.304C263.271 288.721 270.693 289.727 282.457 303.56" stroke="#A2CDFF" stroke-width="3"/>
<path d="M221.259 277.701C256.109 240.849 290.363 248.792 310.696 281.488" stroke="#00498C" stroke-width="5"/>
<ellipse cx="265.377" cy="309.96" rx="4.96621" ry="4.948" fill="#007BED"/>
<rect x="262.894" y="312.434" width="4.96621" height="53.191" fill="#007BED"/>
<defs>
<filter id="filter0_d" x="0.960449" y="0.938232" width="134.024" height="138.229" filterUnits="userSpaceOnUse" color-interpolation-filters="sRGB">
<feFlood flood-opacity="0" result="BackgroundImageFix"/>
<feColorMatrix in="SourceAlpha" type="matrix" values="0 0 0 0 0 0 0 0 0 0 0 0 0 0 0 0 0 0 127 0"/>
<feOffset dy="4"/>
<feGaussianBlur stdDeviation="10"/>
<feColorMatrix type="matrix" values="0 0 0 0 0.47451 0 0 0 0 0.721569 0 0 0 0 1 0 0 0 0.3 0"/>
<feBlend mode="normal" in2="BackgroundImageFix" result="effect1_dropShadow"/>
<feBlend mode="normal" in="SourceGraphic" in2="effect1_dropShadow" result="shape"/>
</filter>
</defs>
</svg>
