<svg width="80" height="80" viewBox="0 0 80 80" fill="none" xmlns="http://www.w3.org/2000/svg">
<path d="M68.571 47.142C68.566 47.3328 68.5992 47.5226 68.6687 47.7003C68.7382 47.8781 68.8426 48.0401 68.9758 48.1768C69.1089 48.3135 69.2681 48.4222 69.4439 48.4964C69.6198 48.5706 69.8087 48.6088 69.9995 48.6088C70.1903 48.6088 70.3793 48.5706 70.5551 48.4964C70.7309 48.4222 70.8901 48.3135 71.0232 48.1768C71.1564 48.0401 71.2608 47.8781 71.3303 47.7003C71.3998 47.5226 71.4331 47.3328 71.428 47.142V15.713C71.4277 14.5766 70.9762 13.4869 70.1727 12.6833C69.3691 11.8798 68.2794 11.4283 67.143 11.428H37.143C36.9522 11.4229 36.7624 11.4562 36.5847 11.5257C36.4069 11.5952 36.2449 11.6996 36.1082 11.8328C35.9715 11.9659 35.8628 12.1251 35.7886 12.3009C35.7144 12.4767 35.6762 12.6656 35.6762 12.8565C35.6762 13.0473 35.7144 13.2362 35.7886 13.4121C35.8628 13.5879 35.9715 13.7471 36.1082 13.8802C36.2449 14.0134 36.4069 14.1178 36.5847 14.1873C36.7624 14.2568 36.9522 14.29 37.143 14.285H67.143C67.932 14.285 68.571 14.925 68.571 15.713V47.142Z" fill="#79B8FF"/>
<path d="M37.143 18.5701C36.764 18.5701 36.4005 18.7206 36.1325 18.9886C35.8646 19.2566 35.714 19.6201 35.714 19.9991C35.714 20.3781 35.8646 20.7415 36.1325 21.0095C36.4005 21.2775 36.764 21.4281 37.143 21.4281H60C60.3723 21.4182 60.7261 21.2634 60.9859 20.9966C61.2458 20.7297 61.3912 20.372 61.3912 19.9996C61.3912 19.6271 61.2458 19.2694 60.9859 19.0026C60.7261 18.7357 60.3723 18.5809 60 18.5711H37.143V18.5701ZM11.428 32.8561C11.433 32.6653 11.3998 32.4754 11.3303 32.2977C11.2608 32.12 11.1564 31.958 11.0232 31.8213C10.8901 31.6846 10.7309 31.5759 10.5551 31.5017C10.3792 31.4275 10.1903 31.3893 9.9995 31.3893C9.80866 31.3893 9.61975 31.4275 9.44392 31.5017C9.26809 31.5759 9.10891 31.6846 8.97576 31.8213C8.84262 31.958 8.7382 32.12 8.66868 32.2977C8.59916 32.4754 8.56595 32.6653 8.571 32.8561V64.2851C8.571 65.4218 9.02256 66.5119 9.82634 67.3157C10.6301 68.1195 11.7203 68.5711 12.857 68.5711H42.857C43.236 68.5711 43.5995 68.4205 43.8675 68.1525C44.1354 67.8845 44.286 67.5211 44.286 67.1421C44.286 66.7631 44.1354 66.3996 43.8675 66.1316C43.5995 65.8636 43.236 65.7131 42.857 65.7131H12.857C12.068 65.7131 11.428 65.0731 11.428 64.2851V32.8561ZM31.428 35.7131C31.049 35.7131 30.6855 35.8636 30.4175 36.1316C30.1496 36.3996 29.999 36.7631 29.999 37.1421C29.999 37.5211 30.1496 37.8845 30.4175 38.1525C30.6855 38.4205 31.049 38.5711 31.428 38.5711H60C60.379 38.5711 60.7425 38.4205 61.0105 38.1525C61.2784 37.8845 61.429 37.5211 61.429 37.1421C61.429 36.7631 61.2784 36.3996 61.0105 36.1316C60.7425 35.8636 60.379 35.7131 60 35.7131H31.428ZM30 44.2851C30 43.4951 30.64 42.8561 31.428 42.8561H48.571C48.7618 42.851 48.9516 42.8842 49.1293 42.9538C49.3071 43.0233 49.4691 43.1277 49.6058 43.2608C49.7425 43.394 49.8512 43.5532 49.9254 43.729C49.9996 43.9048 50.0378 44.0937 50.0378 44.2846C50.0378 44.4754 49.9996 44.6643 49.9254 44.8401C49.8512 45.016 49.7425 45.1752 49.6058 45.3083C49.4691 45.4414 49.3071 45.5459 49.1293 45.6154C48.9516 45.6849 48.7618 45.7181 48.571 45.7131H31.428C30.64 45.7131 30 45.0731 30 44.2851ZM35.714 27.1421C35.714 26.3531 36.354 25.7131 37.143 25.7131H48.57C48.949 25.7131 49.3125 25.8636 49.5805 26.1316C49.8484 26.3996 49.999 26.7631 49.999 27.1421C49.999 27.5211 49.8484 27.8845 49.5805 28.1525C49.3125 28.4205 48.949 28.5711 48.57 28.5711H37.143C36.353 28.5711 35.714 27.9311 35.714 27.1421Z" fill="#79B8FF"/>
<path d="M31.428 51.428C31.0557 51.4378 30.7019 51.5927 30.4421 51.8595C30.1822 52.1263 30.0368 52.484 30.0368 52.8565C30.0368 53.2289 30.1822 53.5867 30.4421 53.8535C30.7019 54.1203 31.0557 54.2751 31.428 54.285H42.857C43.0478 54.29 43.2376 54.2568 43.4154 54.1873C43.5931 54.1178 43.7551 54.0134 43.8918 53.8802C44.0285 53.7471 44.1372 53.5879 44.2114 53.4121C44.2856 53.2362 44.3238 53.0473 44.3238 52.8565C44.3238 52.6656 44.2856 52.4767 44.2114 52.3009C44.1372 52.1251 44.0285 51.9659 43.8918 51.8328C43.7551 51.6996 43.5931 51.5952 43.4154 51.5257C43.2376 51.4562 43.0478 51.4229 42.857 51.428H31.428ZM30 60C30 59.21 30.64 58.57 31.428 58.57H42.857C43.0447 58.57 43.2305 58.607 43.4039 58.6788C43.5772 58.7506 43.7348 58.8558 43.8675 58.9885C44.0001 59.1212 44.1054 59.2788 44.1772 59.4521C44.249 59.6255 44.286 59.8113 44.286 59.999C44.286 60.1866 44.249 60.3725 44.1772 60.5458C44.1054 60.7192 44.0001 60.8767 43.8675 61.0094C43.7348 61.1421 43.5772 61.2474 43.4039 61.3192C43.2305 61.391 43.0447 61.428 42.857 61.428H31.428C30.64 61.428 30 60.788 30 59.999V60Z" fill="#79B8FF"/>
<path d="M25.295 12.6271C25.5627 12.895 25.7131 13.2583 25.7131 13.6371C25.7131 14.0158 25.5627 14.3791 25.295 14.6471L18.153 21.7911C17.8851 22.0588 17.5218 22.2092 17.143 22.2092C16.7642 22.2092 16.401 22.0588 16.133 21.7911L13.275 18.9331C13.0203 18.6626 12.8809 18.3035 12.8865 17.932C12.8921 17.5604 13.0422 17.2057 13.3049 16.943C13.5676 16.6802 13.9224 16.5302 14.2939 16.5246C14.6654 16.519 15.0245 16.6583 15.295 16.9131L17.142 18.7601L23.275 12.6271C23.543 12.3594 23.9062 12.209 24.285 12.209C24.6638 12.209 25.0271 12.3594 25.295 12.6271Z" fill="#2188FF"/>
<path fill-rule="evenodd" clip-rule="evenodd" d="M5.71399 10.0001C5.71452 8.86369 6.16631 7.77405 6.97004 6.9707C7.77376 6.16735 8.86362 5.71606 9.99999 5.71606H28.57C29.7065 5.7158 30.7966 6.16697 31.6006 6.97034C32.4045 7.77372 32.8565 8.86352 32.857 10.0001V24.2851C32.857 25.4151 32.4108 26.4993 31.6155 27.302C30.8201 28.1047 29.7399 28.5608 28.61 28.5711L28.573 31.4461C28.5699 31.7102 28.4936 31.9682 28.3525 32.1915C28.2115 32.4149 28.0114 32.5947 27.7743 32.7111C27.5372 32.8274 27.2725 32.8758 27.0096 32.8507C26.7466 32.8256 26.4958 32.7281 26.285 32.5691L20.981 28.5711H9.99999C8.86327 28.5711 7.77311 28.1195 6.96933 27.3157C6.16555 26.5119 5.71399 25.4218 5.71399 24.2851V10.0011V10.0001ZM9.99999 8.57306C9.20999 8.57306 8.57099 9.21306 8.57099 10.0021V24.2871C8.57099 25.0771 9.21099 25.7161 9.99999 25.7161H21.459C21.769 25.7161 22.071 25.8161 22.319 26.0041L25.752 28.5911L25.771 27.1261C25.781 26.3441 26.417 25.7161 27.199 25.7161H28.571C29.36 25.7161 30 25.0761 30 24.2871V10.0011C30 9.21106 29.36 8.57206 28.571 8.57206H9.99999V8.57306Z" fill="#2188FF"/>
<path d="M56.67 58.7899C56.938 58.5222 57.3012 58.3718 57.68 58.3718C58.0588 58.3718 58.4221 58.5222 58.69 58.7899L60.723 60.8229L62.717 58.8289C62.8481 58.6897 63.0059 58.5782 63.1809 58.501C63.3559 58.4238 63.5446 58.3826 63.7359 58.3797C63.9271 58.3769 64.117 58.4124 64.2943 58.4843C64.4715 58.5562 64.6325 58.6629 64.7678 58.7981C64.903 58.9334 65.0098 59.0944 65.0816 59.2716C65.1535 59.4489 65.1891 59.6388 65.1862 59.83C65.1833 60.0213 65.1421 60.21 65.0649 60.385C64.9878 60.56 64.8763 60.7178 64.737 60.8489L62.744 62.8429L64.752 64.8509C64.8913 64.982 65.0028 65.1398 65.0799 65.3148C65.1571 65.4898 65.1983 65.6785 65.2012 65.8698C65.2041 66.061 65.1685 66.2509 65.0966 66.4282C65.0248 66.6054 64.9181 66.7665 64.7828 66.9017C64.6476 67.037 64.4865 67.1437 64.3093 67.2155C64.132 67.2874 63.9421 67.323 63.7509 67.3201C63.5596 67.3172 63.3709 67.276 63.1959 67.1988C63.0209 67.1217 62.8631 67.0102 62.732 66.8709L60.723 64.8629L58.676 66.9099C58.5449 67.0492 58.3871 67.1607 58.2121 67.2378C58.0371 67.315 57.8484 67.3562 57.6571 67.3591C57.4659 67.362 57.276 67.3264 57.0987 67.2545C56.9215 67.1827 56.7605 67.076 56.6252 66.9407C56.49 66.8055 56.3832 66.6444 56.3114 66.4672C56.2395 66.2899 56.204 66.1 56.2068 65.9088C56.2097 65.7175 56.2509 65.5288 56.3281 65.3538C56.4052 65.1788 56.5168 65.021 56.656 64.8899L58.703 62.8429L56.671 60.8109C56.4033 60.543 56.2529 60.1797 56.2529 59.8009C56.2529 59.4221 56.4033 59.0589 56.671 58.7909L56.67 58.7899Z" fill="#2188FF"/>
<path fill-rule="evenodd" clip-rule="evenodd" d="M70 74.2861C71.1364 74.2858 72.2261 73.8343 73.0297 73.0308C73.8332 72.2272 74.2848 71.1375 74.285 70.0011V55.7151C74.285 54.5785 73.8336 53.4885 73.03 52.6848C72.2265 51.881 71.1366 51.4294 70 51.4291H59.019L53.714 47.4311C53.5031 47.2724 53.2523 47.1752 52.9895 47.1503C52.7267 47.1255 52.4622 47.1739 52.2253 47.2902C51.9883 47.4065 51.7882 47.5861 51.6471 47.8092C51.506 48.0323 51.4295 48.2902 51.426 48.5541L51.389 51.4291C50.2591 51.4394 49.1789 51.8955 48.3835 52.6981C47.5882 53.5008 47.142 54.5851 47.142 55.7151V70.0001C47.1423 71.1366 47.594 72.2265 48.3977 73.0301C49.2015 73.8337 50.2915 74.2851 51.428 74.2851H70V74.2861ZM71.428 70.0011C71.428 70.7891 70.788 71.4291 70 71.4291H51.428C50.639 71.4291 50 70.7891 50 70.0011V55.7151C50 54.9251 50.64 54.2861 51.428 54.2861H52.8C53.582 54.2861 54.219 53.6581 54.228 52.8761L54.247 51.4111L57.681 53.9981C57.928 54.1851 58.231 54.2861 58.541 54.2861H70C70.789 54.2861 71.428 54.9261 71.428 55.7151V70.0001V70.0011ZM15.714 38.5721C15.714 38.1969 15.7879 37.8254 15.9315 37.4788C16.0751 37.1321 16.2855 36.8172 16.5508 36.5519C16.8161 36.2866 17.1311 36.0761 17.4777 35.9326C17.8243 35.789 18.1958 35.7151 18.571 35.7151H22.857C23.6147 35.7151 24.3414 36.0161 24.8772 36.5519C25.413 37.0877 25.714 37.8144 25.714 38.5721V42.8581C25.714 43.2333 25.6401 43.6048 25.4965 43.9514C25.353 44.298 25.1425 44.613 24.8772 44.8783C24.6119 45.1436 24.297 45.354 23.9503 45.4976C23.6037 45.6412 23.2322 45.7151 22.857 45.7151H18.57C18.1948 45.7151 17.8233 45.6412 17.4767 45.4976C17.1301 45.354 16.8151 45.1436 16.5498 44.8783C16.2845 44.613 16.0741 44.298 15.9305 43.9514C15.7869 43.6048 15.713 43.2333 15.713 42.8581V38.5721H15.714ZM22.857 38.5721H18.57V42.8581H22.856V38.5721H22.857ZM18.571 51.4301C17.8135 51.4301 17.0869 51.731 16.5512 52.2665C16.0154 52.8021 15.7143 53.5285 15.714 54.2861V58.5721C15.714 59.3298 16.015 60.0565 16.5508 60.5923C17.0866 61.1281 17.8133 61.4291 18.571 61.4291H22.857C23.6147 61.4291 24.3414 61.1281 24.8772 60.5923C25.413 60.0565 25.714 59.3298 25.714 58.5721V54.2861C25.714 53.5284 25.413 52.8017 24.8772 52.2659C24.3414 51.7301 23.6147 51.4291 22.857 51.4291H18.57L18.571 51.4301ZM18.571 54.2861H22.857V58.5721H18.57V54.2861H18.571Z" fill="#2188FF"/>
</svg>
