<svg width="48" height="56" viewBox="0 0 48 48" fill="none" xmlns="http://www.w3.org/2000/svg">
<rect x="21.6875" width="2" height="47" transform="rotate(27.4794 21.6875 0)" fill="white"/>
<rect x="23.4609" y="0.922852" width="3" height="3" transform="rotate(27.4794 23.4609 0.922852)" fill="#56CCF2"/>
<rect x="26.123" y="2.30762" width="3" height="3" transform="rotate(27.4794 26.123 2.30762)" fill="white"/>
<rect x="28.7852" y="3.69141" width="3" height="3" transform="rotate(27.4794 28.7852 3.69141)" fill="#56CCF2"/>
<rect x="31.4473" y="5.07617" width="3" height="3" transform="rotate(27.4794 31.4473 5.07617)" fill="white"/>
<rect x="34.1074" y="6.45996" width="3" height="3" transform="rotate(27.4794 34.1074 6.45996)" fill="#56CCF2"/>
<rect x="36.7695" y="7.84473" width="3" height="3" transform="rotate(27.4794 36.7695 7.84473)" fill="white"/>
<rect x="39.4316" y="9.22852" width="3" height="3" transform="rotate(27.4794 39.4316 9.22852)" fill="#56CCF2"/>
<rect x="35.3848" y="10.5059" width="3" height="3" transform="rotate(27.4794 35.3848 10.5059)" fill="#56CCF2"/>
<rect x="22.0781" y="3.58398" width="3" height="3" transform="rotate(27.4794 22.0781 3.58398)" fill="white"/>
<rect x="24.7383" y="4.96875" width="3" height="3" transform="rotate(27.4794 24.7383 4.96875)" fill="#56CCF2"/>
<rect x="27.4004" y="6.35254" width="3" height="3" transform="rotate(27.4794 27.4004 6.35254)" fill="white"/>
<rect x="30.0625" y="7.7373" width="3" height="3" transform="rotate(27.4794 30.0625 7.7373)" fill="#56CCF2"/>
<rect x="32.7246" y="9.12109" width="3" height="3" transform="rotate(27.4794 32.7246 9.12109)" fill="white"/>
<rect x="38.0469" y="11.8896" width="3" height="3" transform="rotate(27.4794 38.0469 11.8896)" fill="white"/>
<rect x="20.6934" y="6.24609" width="3" height="3" transform="rotate(27.4794 20.6934 6.24609)" fill="#56CCF2"/>
<rect x="23.3555" y="7.62988" width="3" height="3" transform="rotate(27.4794 23.3555 7.62988)" fill="white"/>
<rect x="26.0156" y="9.01465" width="3" height="3" transform="rotate(27.4794 26.0156 9.01465)" fill="#56CCF2"/>
<rect x="28.6777" y="10.3984" width="3" height="3" transform="rotate(27.4794 28.6777 10.3984)" fill="white"/>
<rect x="31.3398" y="11.7832" width="3" height="3" transform="rotate(27.4794 31.3398 11.7832)" fill="#56CCF2"/>
<rect x="34" y="13.167" width="3" height="3" transform="rotate(27.4794 34 13.167)" fill="white"/>
<rect x="36.6621" y="14.5518" width="3" height="3" transform="rotate(27.4794 36.6621 14.5518)" fill="#56CCF2"/>
<rect x="32.6172" y="15.8291" width="3" height="3" transform="rotate(27.4794 32.6172 15.8291)" fill="#56CCF2"/>
<rect x="19.3086" y="8.90723" width="3" height="3" transform="rotate(27.4794 19.3086 8.90723)" fill="white"/>
<rect x="21.9707" y="10.292" width="3" height="3" transform="rotate(27.4794 21.9707 10.292)" fill="#56CCF2"/>
<rect x="24.6328" y="11.6758" width="3" height="3" transform="rotate(27.4794 24.6328 11.6758)" fill="white"/>
<rect x="27.293" y="13.0605" width="3" height="3" transform="rotate(27.4794 27.293 13.0605)" fill="#56CCF2"/>
<rect x="29.9551" y="14.4443" width="3" height="3" transform="rotate(27.4794 29.9551 14.4443)" fill="white"/>
<rect x="35.2773" y="17.2129" width="3" height="3" transform="rotate(27.4794 35.2773 17.2129)" fill="white"/>
<rect x="17.9238" y="11.5693" width="3" height="3" transform="rotate(27.4794 17.9238 11.5693)" fill="#56CCF2"/>
<rect x="20.5859" y="12.9531" width="3" height="3" transform="rotate(27.4794 20.5859 12.9531)" fill="white"/>
<rect x="23.248" y="14.3379" width="3" height="3" transform="rotate(27.4794 23.248 14.3379)" fill="#56CCF2"/>
<rect x="25.9102" y="15.7217" width="3" height="3" transform="rotate(27.4794 25.9102 15.7217)" fill="white"/>
<rect x="28.5703" y="17.1064" width="3" height="3" transform="rotate(27.4794 28.5703 17.1064)" fill="#56CCF2"/>
<rect x="31.2324" y="18.4902" width="3" height="3" transform="rotate(27.4794 31.2324 18.4902)" fill="white"/>
<rect x="33.8945" y="19.875" width="3" height="3" transform="rotate(27.4794 33.8945 19.875)" fill="#56CCF2"/>
<rect x="29.8477" y="21.1523" width="3" height="3" transform="rotate(27.4794 29.8477 21.1523)" fill="#56CCF2"/>
<rect x="16.541" y="14.2305" width="3" height="3" transform="rotate(27.4794 16.541 14.2305)" fill="white"/>
<rect x="19.2012" y="15.6152" width="3" height="3" transform="rotate(27.4794 19.2012 15.6152)" fill="#56CCF2"/>
<rect x="21.8633" y="16.999" width="3" height="3" transform="rotate(27.4794 21.8633 16.999)" fill="white"/>
<rect x="24.5254" y="18.3838" width="3" height="3" transform="rotate(27.4794 24.5254 18.3838)" fill="#56CCF2"/>
<rect x="27.1875" y="19.7676" width="3" height="3" transform="rotate(27.4794 27.1875 19.7676)" fill="white"/>
<rect x="32.5098" y="22.5361" width="3" height="3" transform="rotate(27.4794 32.5098 22.5361)" fill="white"/>
<rect x="15.1562" y="16.8916" width="3" height="3" transform="rotate(27.4794 15.1562 16.8916)" fill="#56CCF2"/>
<rect x="17.8184" y="18.2764" width="3" height="3" transform="rotate(27.4794 17.8184 18.2764)" fill="white"/>
<rect x="20.4785" y="19.6602" width="3" height="3" transform="rotate(27.4794 20.4785 19.6602)" fill="#56CCF2"/>
<rect x="23.1406" y="21.0449" width="3" height="3" transform="rotate(27.4794 23.1406 21.0449)" fill="white"/>
<rect x="25.8027" y="22.4287" width="3" height="3" transform="rotate(27.4794 25.8027 22.4287)" fill="#56CCF2"/>
<rect x="28.4629" y="23.8135" width="3" height="3" transform="rotate(27.4794 28.4629 23.8135)" fill="white"/>
<rect x="31.125" y="25.1982" width="3" height="3" transform="rotate(27.4794 31.125 25.1982)" fill="#56CCF2"/>
<rect x="39.4316" y="9.22852" width="3" height="3" transform="rotate(27.4794 39.4316 9.22852)" fill="#56CCF2"/>
<rect x="42.0918" y="10.6133" width="3" height="3" transform="rotate(27.4794 42.0918 10.6133)" fill="white"/>
<rect x="44.7539" y="11.9971" width="3" height="3" transform="rotate(27.4794 44.7539 11.9971)" fill="#56CCF2"/>
<rect x="38.0469" y="11.8896" width="3" height="3" transform="rotate(27.4794 38.0469 11.8896)" fill="white"/>
<rect x="40.709" y="13.2744" width="3" height="3" transform="rotate(27.4794 40.709 13.2744)" fill="#56CCF2"/>
<rect x="43.3691" y="14.6592" width="3" height="3" transform="rotate(27.4794 43.3691 14.6592)" fill="white"/>
<rect x="36.6621" y="14.5518" width="3" height="3" transform="rotate(27.4794 36.6621 14.5518)" fill="#56CCF2"/>
<rect x="39.3242" y="15.9355" width="3" height="3" transform="rotate(27.4794 39.3242 15.9355)" fill="white"/>
<rect x="41.9863" y="17.3203" width="3" height="3" transform="rotate(27.4794 41.9863 17.3203)" fill="#56CCF2"/>
<rect x="35.2773" y="17.2129" width="3" height="3" transform="rotate(27.4794 35.2773 17.2129)" fill="white"/>
<rect x="37.9395" y="18.5977" width="3" height="3" transform="rotate(27.4794 37.9395 18.5977)" fill="#56CCF2"/>
<rect x="40.6016" y="19.9814" width="3" height="3" transform="rotate(27.4794 40.6016 19.9814)" fill="white"/>
<rect x="33.8945" y="19.875" width="3" height="3" transform="rotate(27.4794 33.8945 19.875)" fill="#56CCF2"/>
<rect x="36.5547" y="21.2588" width="3" height="3" transform="rotate(27.4794 36.5547 21.2588)" fill="white"/>
<rect x="39.2168" y="22.6436" width="3" height="3" transform="rotate(27.4794 39.2168 22.6436)" fill="#56CCF2"/>
<rect x="32.5098" y="22.5361" width="3" height="3" transform="rotate(27.4794 32.5098 22.5361)" fill="white"/>
<rect x="35.1719" y="23.9209" width="3" height="3" transform="rotate(27.4794 35.1719 23.9209)" fill="#56CCF2"/>
<rect x="37.832" y="25.3047" width="3" height="3" transform="rotate(27.4794 37.832 25.3047)" fill="white"/>
<rect x="31.125" y="25.1982" width="3" height="3" transform="rotate(27.4794 31.125 25.1982)" fill="#56CCF2"/>
<rect x="33.7871" y="26.582" width="3" height="3" transform="rotate(27.4794 33.7871 26.582)" fill="white"/>
<rect x="36.4492" y="27.9668" width="3" height="3" transform="rotate(27.4794 36.4492 27.9668)" fill="#56CCF2"/>
</svg>
