<svg width="102" height="85" viewBox="0 0 102 85" fill="none" xmlns="http://www.w3.org/2000/svg">
<path d="M51 42.4897V79.9897" stroke="white" stroke-width="10" stroke-linecap="round" stroke-linejoin="round"/>
<path d="M85.9584 69.1148C90.0223 66.8992 93.2327 63.3934 95.0829 59.1507C96.9331 54.908 97.3176 50.1699 96.1759 45.6843C95.0342 41.1987 92.4313 37.2211 88.7779 34.3791C85.1245 31.5372 80.6287 29.9928 76.0001 29.9898V29.9898C72.9092 29.9898 70.2754 27.8652 69.0419 25.0311C67.7395 22.0387 66.0009 19.2449 63.8749 16.7439C60.6115 12.905 56.5203 9.8558 51.9088 7.82562C47.2974 5.79545 42.2857 4.83709 37.2506 5.0226C32.2154 5.20812 27.2879 6.53268 22.8383 8.8967C18.3888 11.2607 14.533 14.6027 11.561 18.6714C8.58896 22.74 6.57795 27.4295 5.67916 32.3872C4.78037 37.345 5.01718 42.442 6.3718 47.295C7.72642 52.1481 10.1636 56.6309 13.5001 60.4064" stroke="white" stroke-width="10" stroke-linecap="round" stroke-linejoin="round"/>
<path d="M67.6668 59.1564L65.1423 56.6319C57.3318 48.8214 44.6685 48.8214 36.858 56.6319L34.3335 59.1564" stroke="white" stroke-width="10" stroke-linecap="round" stroke-linejoin="round"/>
</svg>
