<?xml version="1.0" encoding="UTF-8" standalone="no"?>
<!DOCTYPE svg PUBLIC "-//W3C//DTD SVG 1.1//EN" "http://www.w3.org/Graphics/SVG/1.1/DTD/svg11.dtd">
<svg width="100%" height="100%" viewBox="0 0 40 38" version="1.1" xmlns="http://www.w3.org/2000/svg" xmlns:xlink="http://www.w3.org/1999/xlink" xml:space="preserve" xmlns:serif="http://www.serif.com/" style="fill-rule:evenodd;clip-rule:evenodd;stroke-linejoin:round;stroke-miterlimit:2;">
    <g transform="matrix(0.24,0,0,0.24,-354.783,-24.1383)">
        <g transform="matrix(0.575692,-0.226409,0.226409,0.575692,794.636,-99.6949)">
            <g transform="matrix(0.24695,1.37085e-17,-1.37085e-17,0.24695,566.472,245.483)">
                <path d="M1514.64,2024.13C1575.86,1982.81 1654.71,1978.1 1720.41,2011.83C1829.94,2068.07 2001.09,2155.95 2121.73,2217.9C2204.45,2260.38 2247.61,2353.75 2226.36,2444.28C2196.12,2573.1 2153.27,2755.65 2123.46,2882.65C2102.91,2970.19 2027.09,3033.69 1937.31,3038.56C1872.37,3042.08 1778.71,3053.17 1735.9,3052.35C1732.07,3052.28 1699.66,3055.26 1658.55,3041.45C1602.15,3022.51 1412.52,2943.91 1268.48,2893.91C1166.48,2858.5 1110.21,2749.3 1140.57,2645.7C1178.73,2515.47 1227.67,2348.44 1254.85,2255.69C1268.11,2210.42 1296.77,2171.2 1335.87,2144.81C1385.47,2111.32 1456.7,2063.24 1514.64,2024.13Z" style="fill:rgb(3,11,23);"/>
            </g>
        </g>
        <g transform="matrix(0.575692,-0.226409,0.226409,0.575692,794.636,-99.6949)">
            <g transform="matrix(0.24695,-1.38778e-17,-1.38778e-17,0.24695,566.472,245.483)">
                <path d="M1709.21,1988.98C1714.94,1991.3 1720.58,1993.85 1726.13,1996.61C1861.44,2065.37 1996.73,2134.2 2131.2,2204.61C2215.32,2249.23 2263.8,2349.78 2242.62,2445.68C2209.16,2593.58 2174.46,2741.2 2138.67,2888.55C2116.01,2979.83 2028.41,3049.55 1935.16,3054.87C1933.1,3054.99 1931.05,3055.11 1928.99,3055.24C1866.68,3059.18 1805.21,3068.22 1742.33,3068.56C1701.74,3068.78 1668.7,3062.77 1629.88,3048.37C1509.51,3003.72 1390.07,2953.55 1269.92,2911.53C1214.8,2892.25 1166.86,2853.89 1140.52,2802.78C1115.35,2753.93 1109.59,2695.79 1124.68,2642.46C1162.72,2511.14 1200.5,2379.74 1240.02,2248.86C1254.38,2202.22 1284.62,2160.73 1324.85,2132.76C1385.28,2091.24 1446.21,2050.46 1507.15,2009.7C1564.96,1971.72 1640.26,1962.97 1705.77,1987.64C1707.5,1988.3 1707.5,1988.3 1709.21,1988.98ZM1700.02,2002.74C1639.99,1980.15 1570.54,1987.41 1516.08,2023.17C1455.23,2063.87 1394.39,2104.6 1334.04,2146.06C1296.86,2171.9 1268.75,2210.48 1255.48,2253.57C1215.99,2384.37 1178.23,2515.68 1140.22,2646.91C1112.54,2744.67 1167.83,2857.94 1267.28,2893.49C1397.71,2939.21 1523.35,2994.2 1652.88,3039.51C1742.19,3070.75 1843.42,3044.88 1940.45,3038.37C2025.38,3032.23 2102.67,2968.27 2123.22,2883.68C2158.14,2736.6 2193.47,2589.6 2226.84,2442.16C2245.8,2356.29 2203.46,2260.69 2122.7,2218.4C1988.27,2148.92 1853.77,2079.59 1718.87,2011.05C1712.77,2008.01 1710.12,2006.64 1700.02,2002.74Z" style="fill:url(#_Linear1);"/>
            </g>
        </g>
        <g transform="matrix(0.575692,-0.226409,0.226409,0.575692,794.636,-99.6949)">
            <g transform="matrix(1.50436,0.591636,-0.591636,1.50436,-1254.4,-320.158)">
                <path d="M1608.54,231.629C1609.74,231.635 1610.77,232.475 1611.02,233.647C1611.27,234.819 1610.83,236.613 1609.74,237.111C1609.73,237.112 1607.65,238.522 1606.65,239.067C1606.09,239.377 1599.69,242.748 1594.5,245.117C1590.85,246.787 1586.91,247.73 1582.9,247.893C1571.17,248.369 1545.25,247.179 1524.31,248.03C1523.04,248.081 1521.78,248.056 1520.55,247.957C1518.24,247.797 1516.27,246.248 1515.56,244.046C1514.85,241.844 1515.56,239.434 1517.35,237.963C1517.32,237.923 1517.32,237.922 1517.32,237.92C1519.55,236.081 1521.77,234.229 1524.45,233.275C1527.13,232.321 1530.54,232.752 1533.43,232.77C1550.35,232.875 1589.83,231.513 1608.54,231.629ZM1519.05,217.049C1519.49,223.651 1516.72,230.059 1511.62,234.269C1511.62,234.269 1511.62,234.27 1511.62,234.27C1509.08,236.36 1505.73,237.169 1502.52,236.463C1499.31,235.757 1496.61,233.615 1495.19,230.654C1493.62,227.355 1492.59,223.735 1492.24,219.894C1490.59,201.537 1488.56,178.937 1487.37,165.715C1486.73,158.538 1488.61,151.36 1492.69,145.422C1497.23,138.82 1501.77,132.683 1507.03,125.031C1507.03,125.029 1507.04,125.027 1507.04,125.025C1507.58,124.229 1509.06,123.024 1510.67,124.185C1512.73,125.663 1513.55,135.734 1513.62,136.699C1514.77,154.171 1517.54,194.211 1519.05,217.049ZM1519.5,126.056C1519.18,121.302 1520.98,116.651 1524.4,113.339C1527.82,110.027 1532.53,108.39 1537.27,108.863C1537.28,108.865 1537.28,108.865 1537.28,108.865C1554.07,110.545 1579.12,113.05 1597.56,114.893C1611.69,116.307 1623.05,127.168 1625.09,141.227L1633.72,200.699C1634.66,207.16 1632.73,213.709 1628.44,218.633C1624.16,223.556 1617.94,226.365 1611.41,226.324C1597.34,226.237 1575.29,225.795 1557.14,225.988C1530.86,226.267 1525.47,224.468 1524.04,194.814C1522.95,172.216 1520.6,142.788 1519.5,126.056ZM1572.29,161.351C1572.29,161.351 1568.61,172.456 1580.19,172.643C1591.77,172.83 1587.19,161.825 1587.19,161.825L1572.29,161.351ZM1599.6,153.289C1602.46,153.38 1604.72,155.78 1604.62,158.644C1604.53,161.509 1602.13,163.76 1599.27,163.669C1596.4,163.578 1594.15,161.179 1594.24,158.314C1594.33,155.45 1596.73,153.198 1599.6,153.289ZM1559.68,152.243C1562.55,152.334 1564.8,154.733 1564.71,157.598C1564.62,160.463 1562.22,162.714 1559.35,162.623C1556.49,162.532 1554.24,160.133 1554.33,157.268C1554.42,154.404 1556.82,152.152 1559.68,152.243Z" style="fill:white;"/>
            </g>
        </g>
    </g>
    <defs>
        <linearGradient id="_Linear1" x1="0" y1="0" x2="1" y2="0" gradientUnits="userSpaceOnUse" gradientTransform="matrix(1193.19,-282.604,273.28,1153.82,1038.54,2803.63)"><stop offset="0" style="stop-color:rgb(46,12,255);stop-opacity:1"/><stop offset="0.18" style="stop-color:rgb(27,80,247);stop-opacity:1"/><stop offset="0.39" style="stop-color:rgb(8,144,240);stop-opacity:1"/><stop offset="1" style="stop-color:rgb(0,172,237);stop-opacity:1"/></linearGradient>
    </defs>
</svg>
