<svg version="1" xmlns="http://www.w3.org/2000/svg" width="853.333" height="853.333" viewBox="0 0 640.000000 640.000000"><path d="M176.5 18c-26.6 5.3-49.1 17.4-68 36.5-8.6 8.6-14.1 15.9-38.6 51.5-36.9 53.5-50.8 74.2-54.6 81-5.3 9.5-10.5 24-12.9 36-4.3 21.1-4.3 21.2 13.1 212.5 6.9 74.7 7.6 80 13.5 95.3 19.6 51 66.9 83.4 121.8 83.3 6.4 0 65.9-.7 132.2-1.5 110.9-1.3 121.3-1.6 131-3.4 18.4-3.4 34.8-9.1 61.5-21.5 29.2-13.5 89-43.9 96.2-48.9 17.3-12 33.7-30.7 43.1-49.4 11.6-23 16.6-47.8 14.2-70.2-3.9-36.4-38.1-268.1-41.5-280.9-11.7-44.3-48.1-80.5-93-92.3-9.1-2.4-27.9-4.6-105-12.4-184.3-18.7-194.2-19.4-213-15.6zM283 54c33.3 3.3 64.8 6.4 70 7 5.2.6 32 3.3 59.5 6 54.5 5.5 58.1 5.9 70 9.7 32.8 10.4 60.2 35.8 73.2 68.1 4.5 11.1 6.6 20.5 10.2 45.7 1.7 11.5 6 41.2 9.6 66 3.6 24.7 7.2 49.5 8 55 .8 5.5 4.1 28.8 7.5 51.7 3.6 25.4 6 45.1 6 50.3 0 39.9-28.2 74.2-68 82.9-6.9 1.5-18.9 1.6-143.5.7-81.8-.6-138.7-1.4-142.8-2-36-5.4-51.3-19.6-59.2-54.9-3.8-16.6-5.3-32.2-8-79.7-2.8-48.4-5.7-93.8-11-167.5-1.9-26.7-4-55.9-4.6-64.9-.6-9.1-.9-19.9-.6-24 2.4-30.5 28.4-55.1 59.2-56 2.2 0 31.2 2.6 64.5 5.9zm-161.2 52.1c4 1.4 6.6 6.7 9.1 18.5 2.9 13.4 3.8 22.2 7.6 78.9 3.3 49.2 4.4 66.1 8 118 10.9 159.5 10.7 155.4 6.5 169-4.9 15.5-14.9 30.5-26.2 39-16.4 12.3-38.9 11-53-3-5.2-5.3-9.4-12.6-13.1-23.1-5.3-14.7-5-12.1-18.7-165.4-2.7-31.1-5.4-60.9-6-66.3-1.4-13.6-1.2-22.6.5-33.7 3.8-23.2 10.1-36.5 32.7-68.6 9-12.7 22.4-31.7 29.8-42.2 11.8-16.7 15.8-21.3 19.6-22.2.1 0 1.5.5 3.2 1.1zm384.7 416.4c2 1.9 2.5 3.4 2.5 7.3 0 6.6-2 9-13.7 15.9-14.3 8.4-52.6 26.7-62.1 29.7-18.6 5.8-18.8 5.8-101.2 5.5-98.7-.5-95.9-.5-137 .1l-35.5.5-5-2.6c-9.8-5-14-16.1-10.1-26.4 2.8-7.1 17.2-19.2 30.4-25.3l5.7-2.7 32.5-.2c27.7-.2 180.1-2.9 207.5-3.6 5-.2 25.8-.4 46.3-.5l37.3-.2 2.4 2.5zm-2.5 41.1c0 .7-42.1 21.4-43.5 21.3-.5 0 8.9-4.9 21-10.8 25.3-12.6 22.5-11.2 22.5-10.5z"/><path d="M304 215.6c-11.4 4.9-15.7 19.2-9 29.8 3.4 5.3 10.9 9.6 17 9.6s13.6-4.3 17.1-9.7c2.8-4.4 3-5.4 2.7-12-.3-6.2-.7-7.7-3.4-11-5.9-7.4-16.2-10.3-24.4-6.7zM455.9 220.3c-12.9 6.8-14.6 23.7-3.5 33.5 14.7 12.9 37.7-1.7 32.7-20.6-3.4-12.3-18-18.8-29.2-12.9zM359.9 251.6c-.6 1.6-1.1 6.7-1.2 11.4-.1 13.6 5 22.4 15.7 27.1 7.2 3.1 22.9 3.8 31.1 1.4 7.5-2.1 13.7-8 15.5-14.5 1.4-5 .8-17.6-1-22.7-1.4-3.9-2-4-34.7-4.9l-24.3-.6-1.1 2.8z"/></svg>